<?xml version="1.0" encoding="UTF-8"?>
<!DOCTYPE svg PUBLIC "-//W3C//DTD SVG 1.1//EN" "http://www.w3.org/Graphics/SVG/1.1/DTD/svg11.dtd">
<svg xmlns="http://www.w3.org/2000/svg" version="1.1" width="192px" height="192px" style="shape-rendering:geometricPrecision; text-rendering:geometricPrecision; image-rendering:optimizeQuality; fill-rule:evenodd; clip-rule:evenodd" xmlns:xlink="http://www.w3.org/1999/xlink">
<g><path style="opacity:0.998" fill="#aa55ff" d="M 10.5,-0.5 C 67.1667,-0.5 123.833,-0.5 180.5,-0.5C 184.5,2.83333 188.167,6.5 191.5,10.5C 191.5,67.1667 191.5,123.833 191.5,180.5C 188.167,184.5 184.5,188.167 180.5,191.5C 123.833,191.5 67.1667,191.5 10.5,191.5C 6.5,188.167 2.83333,184.5 -0.5,180.5C -0.5,123.833 -0.5,67.1667 -0.5,10.5C 2.83333,6.5 6.5,2.83333 10.5,-0.5 Z"/></g>
<g><path style="opacity:1" fill="#fbf7ff" d="M 45.5,78.5 C 49.0071,77.9935 52.1737,78.6602 55,80.5C 55.1344,84.2625 54.801,87.9292 54,91.5C 58.3333,87.5 62.6667,87.5 67,91.5C 67.1305,95.9639 66.2971,100.297 64.5,104.5C 67.4254,107.896 66.7587,110.396 62.5,112C 54.5117,114.341 51.3451,111.508 53,103.5C 54.3409,100.978 55.1743,98.3113 55.5,95.5C 54.1779,95.33 53.0113,95.6634 52,96.5C 51.1965,99.2442 50.1965,101.911 49,104.5C 48.5702,107.192 48.7369,109.859 49.5,112.5C 44.5,112.5 39.5,112.5 34.5,112.5C 37.6155,104.657 40.4488,96.6567 43,88.5C 43.711,86.1009 43.5443,83.7676 42.5,81.5C 43.3398,80.265 44.3398,79.265 45.5,78.5 Z"/></g>
<g><path style="opacity:1" fill="#faf6ff" d="M 18.5,81.5 C 23.4847,80.7708 27.9847,81.7708 32,84.5C 34.1354,82.7215 36.6354,82.0548 39.5,82.5C 38.8591,86.6065 37.5257,90.4399 35.5,94C 34.5,94.6667 33.5,94.6667 32.5,94C 27.0007,84.9626 22.834,85.7959 20,96.5C 19.3333,99.5 19.3333,102.5 20,105.5C 21.7261,106.576 23.5594,106.743 25.5,106C 27.0542,104.108 28.8876,102.608 31,101.5C 34.0046,102.886 34.3379,104.886 32,107.5C 23.9712,114.462 16.3046,114.129 9,106.5C 5.96073,95.7819 9.1274,87.4486 18.5,81.5 Z"/></g>
<g><path style="opacity:1" fill="#fbf7ff" d="M 104.5,82.5 C 112.84,82.3336 121.173,82.5003 129.5,83C 135.25,88.5083 134.583,93.175 127.5,97C 132.229,103.913 130.563,108.913 122.5,112C 113.921,112.816 105.421,112.649 97,111.5C 100.356,104.373 103.023,96.7067 105,88.5C 105.49,86.4546 105.323,84.4546 104.5,82.5 Z"/></g>
<g><path style="opacity:1" fill="#b368ff" d="M 116.5,86.5 C 118.167,86.5 119.833,86.5 121.5,86.5C 122.267,90.6507 120.767,93.3174 117,94.5C 116.167,94.1667 115.333,93.8333 114.5,93.5C 115.577,91.2706 116.244,88.9372 116.5,86.5 Z"/></g>
<g><path style="opacity:1" fill="#fcf8ff" d="M 161.5,106.5 C 161.5,103.833 161.5,101.167 161.5,98.5C 162.172,93.6612 164.838,90.4945 169.5,89C 173.833,88.3333 178.167,88.3333 182.5,89C 187.414,92.1705 187.747,95.8372 183.5,100C 179.582,101.156 175.582,101.656 171.5,101.5C 171.36,103.124 172.027,104.29 173.5,105C 176.531,105.495 179.531,105.329 182.5,104.5C 181.157,110.158 177.49,112.824 171.5,112.5C 166.877,112.526 163.544,110.526 161.5,106.5 Z"/></g>
<g><path style="opacity:1" fill="#fbf8ff" d="M 79.5,88.5 C 83.5138,88.3345 87.5138,88.5012 91.5,89C 93.5873,89.7922 95.4207,90.9588 97,92.5C 99.1304,102.035 95.6304,108.535 86.5,112C 80.8765,113.276 75.7099,112.443 71,109.5C 67.6667,104.833 67.6667,100.167 71,95.5C 73.4412,92.5464 76.2745,90.2131 79.5,88.5 Z"/></g>
<g><path style="opacity:1" fill="#fbf7ff" d="M 159.5,93.5 C 159.589,97.2998 158.922,100.966 157.5,104.5C 158.225,105.867 158.892,107.2 159.5,108.5C 155.544,113.324 151.21,113.658 146.5,109.5C 136.56,115.563 132.06,112.897 133,101.5C 133.903,100.299 135.069,99.4652 136.5,99C 140.753,98.8002 144.92,98.3002 149,97.5C 149.808,95.4213 149.641,93.4213 148.5,91.5C 146.85,96.3099 143.683,97.6433 139,95.5C 138.16,92.6824 138.994,90.5157 141.5,89C 145.833,88.3333 150.167,88.3333 154.5,89C 156.66,89.9959 158.327,91.4959 159.5,93.5 Z"/></g>
<g><path style="opacity:1" fill="#b367ff" d="M 84.5,92.5 C 85.6491,92.7911 86.3158,93.6244 86.5,95C 85.6676,98.1643 84.8343,101.331 84,104.5C 83.3632,106.303 82.1965,107.636 80.5,108.5C 79.9461,102.804 81.2794,97.4705 84.5,92.5 Z"/></g>
<g><path style="opacity:1" fill="#b66cff" d="M 173.5,92.5 C 176.144,94.6601 175.811,96.6601 172.5,98.5C 172.167,98 171.833,97.5 171.5,97C 172.414,95.5936 173.08,94.0936 173.5,92.5 Z"/></g>
<g><path style="opacity:1" fill="#ae5eff" d="M 113.5,99.5 C 119.446,100.186 120.113,102.686 115.5,107C 114.207,107.49 112.873,107.657 111.5,107.5C 111.858,104.733 112.525,102.067 113.5,99.5 Z"/></g>
<g><path style="opacity:1" fill="#bb77ff" d="M 159.5,93.5 C 160.167,95.1667 160.833,96.8333 161.5,98.5C 161.5,101.167 161.5,103.833 161.5,106.5C 160.833,107.167 160.167,107.833 159.5,108.5C 158.892,107.2 158.225,105.867 157.5,104.5C 158.922,100.966 159.589,97.2998 159.5,93.5 Z"/></g>
<g><path style="opacity:1" fill="#b368ff" d="M 143.5,102.5 C 144.5,102.5 145.5,102.5 146.5,102.5C 146.778,104.346 146.111,105.68 144.5,106.5C 143.571,105.311 143.238,103.978 143.5,102.5 Z"/></g>
</svg>
